%TF.GenerationSoftware,KiCad,Pcbnew,(5.1.2)-2*%
%TF.CreationDate,2020-11-17T15:03:31-05:00*%
%TF.ProjectId,multiphase_converter,6d756c74-6970-4686-9173-655f636f6e76,rev?*%
%TF.SameCoordinates,Original*%
%TF.FileFunction,Soldermask,Bot*%
%TF.FilePolarity,Negative*%
%FSLAX46Y46*%
G04 Gerber Fmt 4.6, Leading zero omitted, Abs format (unit mm)*
G04 Created by KiCad (PCBNEW (5.1.2)-2) date 2020-11-17 15:03:31*
%MOMM*%
%LPD*%
G04 APERTURE LIST*
%ADD10C,0.100000*%
%ADD11O,1.700000X1.700000*%
%ADD12R,1.700000X1.700000*%
%ADD13O,3.500000X32.000000*%
%ADD14C,2.500000*%
%ADD15C,2.400000*%
%ADD16C,2.750000*%
%ADD17C,7.400000*%
%ADD18C,1.800000*%
%ADD19C,2.000000*%
%ADD20R,2.000000X2.000000*%
%ADD21C,4.000000*%
%ADD22O,3.600000X2.080000*%
%ADD23C,2.080000*%
%ADD24C,2.700000*%
%ADD25C,3.000000*%
%ADD26R,3.200000X3.200000*%
%ADD27C,3.200000*%
%ADD28R,2.400000X2.400000*%
G04 APERTURE END LIST*
D10*
G36*
X56000000Y-112850000D02*
G01*
X40000000Y-112850000D01*
X40000000Y-87750000D01*
X56000000Y-87750000D01*
X56000000Y-112850000D01*
G37*
X56000000Y-112850000D02*
X40000000Y-112850000D01*
X40000000Y-87750000D01*
X56000000Y-87750000D01*
X56000000Y-112850000D01*
G36*
X110000000Y-78850000D02*
G01*
X98000000Y-78850000D01*
X98000000Y-62650000D01*
X110000000Y-62650000D01*
X110000000Y-78850000D01*
G37*
X110000000Y-78850000D02*
X98000000Y-78850000D01*
X98000000Y-62650000D01*
X110000000Y-62650000D01*
X110000000Y-78850000D01*
G36*
X105800000Y-242350000D02*
G01*
X87300000Y-242350000D01*
X87300000Y-227700000D01*
X105800000Y-227700000D01*
X105800000Y-242350000D01*
G37*
X105800000Y-242350000D02*
X87300000Y-242350000D01*
X87300000Y-227700000D01*
X105800000Y-227700000D01*
X105800000Y-242350000D01*
G36*
X108550000Y-222550000D02*
G01*
X96450000Y-222550000D01*
X96450000Y-207250000D01*
X108550000Y-207250000D01*
X108550000Y-222550000D01*
G37*
X108550000Y-222550000D02*
X96450000Y-222550000D01*
X96450000Y-207250000D01*
X108550000Y-207250000D01*
X108550000Y-222550000D01*
G36*
X105000000Y-194000000D02*
G01*
X86300000Y-194000000D01*
X86300000Y-179250000D01*
X105000000Y-179250000D01*
X105000000Y-194000000D01*
G37*
X105000000Y-194000000D02*
X86300000Y-194000000D01*
X86300000Y-179250000D01*
X105000000Y-179250000D01*
X105000000Y-194000000D01*
G36*
X108550000Y-174300000D02*
G01*
X96450000Y-174300000D01*
X96400000Y-159100000D01*
X108550000Y-159100000D01*
X108550000Y-174300000D01*
G37*
X108550000Y-174300000D02*
X96450000Y-174300000D01*
X96400000Y-159100000D01*
X108550000Y-159100000D01*
X108550000Y-174300000D01*
G36*
X106950000Y-145500000D02*
G01*
X89250000Y-145500000D01*
X89250000Y-131000000D01*
X106950000Y-131000000D01*
X106950000Y-145500000D01*
G37*
X106950000Y-145500000D02*
X89250000Y-145500000D01*
X89250000Y-131000000D01*
X106950000Y-131000000D01*
X106950000Y-145500000D01*
G36*
X109700000Y-127650000D02*
G01*
X97600000Y-127650000D01*
X97600000Y-112650000D01*
X99300000Y-110900000D01*
X109750000Y-110900000D01*
X109700000Y-127650000D01*
G37*
X109700000Y-127650000D02*
X97600000Y-127650000D01*
X97600000Y-112650000D01*
X99300000Y-110900000D01*
X109750000Y-110900000D01*
X109700000Y-127650000D01*
G36*
X107200000Y-96550000D02*
G01*
X90500000Y-96550000D01*
X90500000Y-82000000D01*
X107200000Y-82000000D01*
X107200000Y-96550000D01*
G37*
X107200000Y-96550000D02*
X90500000Y-96550000D01*
X90500000Y-82000000D01*
X107200000Y-82000000D01*
X107200000Y-96550000D01*
D11*
%TO.C,J7*%
X188250000Y-59580000D03*
X188250000Y-57040000D03*
D12*
X188250000Y-54500000D03*
%TD*%
D11*
%TO.C,J6*%
X188100000Y-34400000D03*
D12*
X188100000Y-31860000D03*
%TD*%
D13*
%TO.C,T4*%
X137050000Y-231150000D03*
D14*
X150950000Y-233650000D03*
X150950000Y-238650000D03*
X150950000Y-243650000D03*
X150950000Y-248650000D03*
X150950000Y-228650000D03*
X150950000Y-223650000D03*
X150950000Y-213650000D03*
X150950000Y-218650000D03*
D15*
X115950000Y-233650000D03*
X115950000Y-243650000D03*
X115950000Y-228650000D03*
X115950000Y-248650000D03*
X115950000Y-238650000D03*
X115950000Y-223650000D03*
X115950000Y-213650000D03*
X115950000Y-218650000D03*
%TD*%
D13*
%TO.C,T3*%
X137050000Y-182950000D03*
D14*
X150950000Y-185450000D03*
X150950000Y-190450000D03*
X150950000Y-195450000D03*
X150950000Y-200450000D03*
X150950000Y-180450000D03*
X150950000Y-175450000D03*
X150950000Y-165450000D03*
X150950000Y-170450000D03*
D15*
X115950000Y-185450000D03*
X115950000Y-195450000D03*
X115950000Y-180450000D03*
X115950000Y-200450000D03*
X115950000Y-190450000D03*
X115950000Y-175450000D03*
X115950000Y-165450000D03*
X115950000Y-170450000D03*
%TD*%
D13*
%TO.C,T2*%
X137050000Y-134750000D03*
D14*
X150950000Y-137250000D03*
X150950000Y-142250000D03*
X150950000Y-147250000D03*
X150950000Y-152250000D03*
X150950000Y-132250000D03*
X150950000Y-127250000D03*
X150950000Y-117250000D03*
X150950000Y-122250000D03*
D15*
X115950000Y-137250000D03*
X115950000Y-147250000D03*
X115950000Y-132250000D03*
X115950000Y-152250000D03*
X115950000Y-142250000D03*
X115950000Y-127250000D03*
X115950000Y-117250000D03*
X115950000Y-122250000D03*
%TD*%
D13*
%TO.C,T1*%
X137050000Y-86550000D03*
D14*
X150950000Y-89050000D03*
X150950000Y-94050000D03*
X150950000Y-99050000D03*
X150950000Y-104050000D03*
X150950000Y-84050000D03*
X150950000Y-79050000D03*
X150950000Y-69050000D03*
X150950000Y-74050000D03*
D15*
X115950000Y-89050000D03*
X115950000Y-99050000D03*
X115950000Y-84050000D03*
X115950000Y-104050000D03*
X115950000Y-94050000D03*
X115950000Y-79050000D03*
X115950000Y-69050000D03*
X115950000Y-74050000D03*
%TD*%
D16*
%TO.C,J3*%
X178450000Y-65425000D03*
X178450000Y-71775000D03*
%TD*%
D11*
%TO.C,J5*%
X177620000Y-22050000D03*
X175080000Y-22050000D03*
X172540000Y-22050000D03*
D12*
X170000000Y-22050000D03*
%TD*%
D11*
%TO.C,J4*%
X165420000Y-22100000D03*
X162880000Y-22100000D03*
X160340000Y-22100000D03*
D12*
X157800000Y-22100000D03*
%TD*%
D17*
%TO.C,H4*%
X44900000Y-250100000D03*
%TD*%
%TO.C,H3*%
X185100000Y-250100000D03*
%TD*%
%TO.C,H2*%
X185050000Y-24900000D03*
%TD*%
%TO.C,H1*%
X44900000Y-24900000D03*
%TD*%
D18*
%TO.C,RV1*%
X54500000Y-47100000D03*
X62000000Y-49400000D03*
%TD*%
D19*
%TO.C,PS2*%
X139460000Y-23210000D03*
X139460000Y-44800000D03*
X139460000Y-33370000D03*
X118700000Y-24500000D03*
D20*
X118700000Y-28400000D03*
%TD*%
D19*
%TO.C,PS1*%
X111840000Y-50710000D03*
X90250000Y-50710000D03*
X101680000Y-50710000D03*
X110550000Y-29950000D03*
D20*
X106650000Y-29950000D03*
%TD*%
D21*
%TO.C,L1*%
X49625784Y-83159620D03*
X66374216Y-59240380D03*
%TD*%
D22*
%TO.C,J2*%
X43100000Y-46260000D03*
X43100000Y-41180000D03*
D10*
G36*
X44674505Y-35061204D02*
G01*
X44698773Y-35064804D01*
X44722572Y-35070765D01*
X44745671Y-35079030D01*
X44767850Y-35089520D01*
X44788893Y-35102132D01*
X44808599Y-35116747D01*
X44826777Y-35133223D01*
X44843253Y-35151401D01*
X44857868Y-35171107D01*
X44870480Y-35192150D01*
X44880970Y-35214329D01*
X44889235Y-35237428D01*
X44895196Y-35261227D01*
X44898796Y-35285495D01*
X44900000Y-35309999D01*
X44900000Y-36890001D01*
X44898796Y-36914505D01*
X44895196Y-36938773D01*
X44889235Y-36962572D01*
X44880970Y-36985671D01*
X44870480Y-37007850D01*
X44857868Y-37028893D01*
X44843253Y-37048599D01*
X44826777Y-37066777D01*
X44808599Y-37083253D01*
X44788893Y-37097868D01*
X44767850Y-37110480D01*
X44745671Y-37120970D01*
X44722572Y-37129235D01*
X44698773Y-37135196D01*
X44674505Y-37138796D01*
X44650001Y-37140000D01*
X41549999Y-37140000D01*
X41525495Y-37138796D01*
X41501227Y-37135196D01*
X41477428Y-37129235D01*
X41454329Y-37120970D01*
X41432150Y-37110480D01*
X41411107Y-37097868D01*
X41391401Y-37083253D01*
X41373223Y-37066777D01*
X41356747Y-37048599D01*
X41342132Y-37028893D01*
X41329520Y-37007850D01*
X41319030Y-36985671D01*
X41310765Y-36962572D01*
X41304804Y-36938773D01*
X41301204Y-36914505D01*
X41300000Y-36890001D01*
X41300000Y-35309999D01*
X41301204Y-35285495D01*
X41304804Y-35261227D01*
X41310765Y-35237428D01*
X41319030Y-35214329D01*
X41329520Y-35192150D01*
X41342132Y-35171107D01*
X41356747Y-35151401D01*
X41373223Y-35133223D01*
X41391401Y-35116747D01*
X41411107Y-35102132D01*
X41432150Y-35089520D01*
X41454329Y-35079030D01*
X41477428Y-35070765D01*
X41501227Y-35064804D01*
X41525495Y-35061204D01*
X41549999Y-35060000D01*
X44650001Y-35060000D01*
X44674505Y-35061204D01*
X44674505Y-35061204D01*
G37*
D23*
X43100000Y-36100000D03*
%TD*%
D11*
%TO.C,J1*%
X153170000Y-22150000D03*
X150630000Y-22150000D03*
X148090000Y-22150000D03*
D12*
X145550000Y-22150000D03*
%TD*%
D24*
%TO.C,F1*%
X63050000Y-32100000D03*
D25*
X51800000Y-32100000D03*
X74300000Y-32100000D03*
%TD*%
D26*
%TO.C,D2*%
X69200000Y-22300000D03*
D27*
X74280000Y-22300000D03*
X79360000Y-22300000D03*
X84440000Y-22300000D03*
%TD*%
D15*
%TO.C,C31*%
X165250000Y-208400000D03*
D28*
X172750000Y-208400000D03*
%TD*%
D15*
%TO.C,C30*%
X175900000Y-193300000D03*
D28*
X183400000Y-193300000D03*
%TD*%
D15*
%TO.C,C29*%
X176500000Y-150950000D03*
D28*
X184000000Y-150950000D03*
%TD*%
D15*
%TO.C,C28*%
X176150000Y-108950000D03*
D28*
X183650000Y-108950000D03*
%TD*%
D15*
%TO.C,C23*%
X49000000Y-229600000D03*
D28*
X56500000Y-229600000D03*
%TD*%
D15*
%TO.C,C22*%
X49000000Y-200016666D03*
D28*
X56500000Y-200016666D03*
%TD*%
D15*
%TO.C,C21*%
X49050000Y-168883333D03*
D28*
X56550000Y-168883333D03*
%TD*%
D15*
%TO.C,C20*%
X49100000Y-137750000D03*
D28*
X56600000Y-137750000D03*
%TD*%
D15*
%TO.C,C15*%
X84450000Y-44250000D03*
X69450000Y-44250000D03*
%TD*%
D19*
%TO.C,C10*%
X53300000Y-41300000D03*
X63300000Y-41300000D03*
%TD*%
M02*
