M48
; DRILL file {KiCad (5.1.2)-2} date 2020-11-17 2:16:37 PM
; FORMAT={-:-/ absolute / inch / decimal}
; #@! TF.CreationDate,2020-11-17T14:16:37-05:00
; #@! TF.GenerationSoftware,Kicad,Pcbnew,(5.1.2)-2
; #@! TF.FileFunction,Plated,1,4,PTH
FMAT,2
INCH
T1C0.0118
T2C0.0157
T3C0.0197
T4C0.0315
T5C0.0394
T6C0.0472
T7C0.0512
T8C0.0551
T9C0.0630
T10C0.0787
T11C0.1457
%
G90
G05
T1
X5.8839Y-1.5787
X5.9902Y-1.7461
X6.0394Y-1.7972
X6.0984Y-1.4705
X6.1181Y-1.626
X6.1516Y-1.4173
X6.1575Y-1.626
X6.2362Y-1.2953
X6.2559Y-1.4114
X6.2756Y-1.2953
X6.2972Y-1.5374
X6.2992Y-1.5709
X6.2992Y-1.6063
X6.3091Y-1.439
X6.3169Y-1.4902
X6.3524Y-1.2598
X6.4114Y-1.3543
X6.4449Y-1.5827
X6.4469Y-1.4429
X6.4783Y-1.5
T2
X1.6732Y-3.5472
X1.6732Y-3.6457
X1.6732Y-3.7441
X1.6732Y-3.8425
X1.6732Y-3.9409
X1.6732Y-4.0394
X1.6732Y-4.1378
X1.6732Y-4.2362
X1.6732Y-4.3346
X1.7717Y-3.5472
X1.7717Y-3.6457
X1.7717Y-3.7441
X1.7717Y-3.8425
X1.7717Y-3.9409
X1.7717Y-4.0394
X1.7717Y-4.1378
X1.7717Y-4.2362
X1.7717Y-4.3346
X1.8701Y-3.5472
X1.8701Y-3.6457
X1.8701Y-3.7441
X1.8701Y-3.8425
X1.8701Y-3.9409
X1.8701Y-4.0394
X1.8701Y-4.1378
X1.8701Y-4.2362
X1.8701Y-4.3346
X1.9685Y-3.5472
X1.9685Y-3.6457
X1.9685Y-3.7441
X1.9685Y-3.8425
X1.9685Y-3.9409
X1.9685Y-4.0394
X1.9685Y-4.1378
X1.9685Y-4.2362
X1.9685Y-4.3346
X2.0669Y-3.5472
X2.0669Y-3.6457
X2.0669Y-3.7441
X2.0669Y-3.8425
X2.0669Y-3.9409
X2.0669Y-4.0394
X2.0669Y-4.1378
X2.0669Y-4.2362
X2.0669Y-4.3346
X2.1654Y-3.5472
X2.1654Y-3.6457
X2.1654Y-3.7441
X2.1654Y-3.8425
X2.1654Y-3.9409
X2.1654Y-4.0394
X2.1654Y-4.1378
X2.1654Y-4.2362
X2.1732Y-4.5453
X2.1732Y-4.5945
X2.1732Y-4.6437
X2.1732Y-4.6929
X2.1732Y-4.7421
X2.2323Y-4.5453
X2.2323Y-4.5945
X2.2323Y-4.6437
X2.2323Y-4.6929
X2.2323Y-4.7421
X2.2913Y-4.5453
X2.2913Y-4.5945
X2.2913Y-4.6437
X2.2913Y-4.6929
X2.2913Y-4.7421
X2.3504Y-4.5453
X2.3504Y-4.5945
X2.3504Y-4.6437
X2.3504Y-4.6929
X2.3504Y-4.7421
X2.5748Y-3.8701
X2.6555Y-3.8701
X2.7303Y-4.4646
X2.7441Y-5.2815
X2.7441Y-7.065
X2.7657Y-3.8248
X2.8484Y-4.1181
X2.9016Y-3.7165
X2.9311Y-3.8917
X2.9429Y-4.124
X2.9606Y-6.2165
X2.9606Y-8.1122
X2.9961Y-4.3209
X3.0177Y-3.9921
X3.0234Y-6.6337
X3.0234Y-6.7419
X3.0234Y-8.547
X3.0234Y-8.6396
X3.0236Y-7.065
X3.0236Y-8.9705
X3.0236Y-9.0728
X3.0571Y-4.7441
X3.0571Y-4.8307
X3.0571Y-5.1693
X3.0669Y-4.0709
X3.0984Y-8.9705
X3.1043Y-7.0669
X3.1319Y-5.1693
X3.1339Y-3.9921
X3.1732Y-6.4094
X3.1734Y-8.3033
X3.189Y-2.6004
X3.2047Y-3.4055
X3.2067Y-4.5217
X3.2224Y-8.7165
X3.2234Y-6.8317
X3.2234Y-8.9065
X3.2244Y-7.0138
X3.2343Y-3.687
X3.2421Y-5.2165
X3.2539Y-4.9094
X3.2598Y-4.4449
X3.2598Y-6.4134
X3.2618Y-8.313
X3.2795Y-3.4035
X3.3287Y-3.7835
X3.3287Y-4.0256
X3.3406Y-2.7539
X3.4045Y-3.1821
X3.4045Y-3.3514
X3.4094Y-3.0197
X3.4094Y-3.0965
X3.4173Y-2.752
X3.5846Y-9.1004
X3.5846Y-9.1791
X3.5846Y-9.2579
X3.5846Y-9.3366
X3.5846Y-9.4154
X3.5866Y-7.1929
X3.5866Y-7.2717
X3.5866Y-7.3504
X3.5866Y-7.4291
X3.5866Y-7.5079
X3.628Y-5.2894
X3.628Y-5.3681
X3.628Y-5.4469
X3.628Y-5.5256
X3.628Y-5.6043
X3.6634Y-9.1004
X3.6634Y-9.1791
X3.6634Y-9.2579
X3.6634Y-9.3366
X3.6634Y-9.4154
X3.6654Y-7.1929
X3.6654Y-7.2717
X3.6654Y-7.3504
X3.6654Y-7.4291
X3.6654Y-7.5079
X3.6673Y-3.3622
X3.6673Y-3.4409
X3.6673Y-3.5197
X3.6673Y-3.5984
X3.6673Y-3.6772
X3.7067Y-5.2894
X3.7067Y-5.3681
X3.7067Y-5.4469
X3.7067Y-5.5256
X3.7067Y-5.6043
X3.7421Y-9.1004
X3.7421Y-9.1791
X3.7421Y-9.2579
X3.7421Y-9.3366
X3.7421Y-9.4154
X3.7441Y-7.1929
X3.7441Y-7.2717
X3.7441Y-7.3504
X3.7441Y-7.4291
X3.7441Y-7.5079
X3.7461Y-3.3622
X3.7461Y-3.4409
X3.7461Y-3.5197
X3.7461Y-3.5984
X3.7461Y-3.6772
X3.7854Y-5.2894
X3.7854Y-5.3681
X3.7854Y-5.4469
X3.7854Y-5.5256
X3.7854Y-5.6043
X3.8209Y-9.1004
X3.8209Y-9.1791
X3.8209Y-9.2579
X3.8209Y-9.3366
X3.8209Y-9.4154
X3.8228Y-7.1929
X3.8228Y-7.2717
X3.8228Y-7.3504
X3.8228Y-7.4291
X3.8228Y-7.5079
X3.8228Y-8.2244
X3.8228Y-8.3031
X3.8228Y-8.3819
X3.8228Y-8.4606
X3.8228Y-8.5394
X3.8228Y-8.6181
X3.8248Y-3.3622
X3.8248Y-3.4409
X3.8248Y-3.5197
X3.8248Y-3.5984
X3.8248Y-3.6772
X3.8248Y-6.3287
X3.8248Y-6.4075
X3.8248Y-6.4862
X3.8248Y-6.565
X3.8248Y-6.6437
X3.8248Y-6.7224
X3.8642Y-5.2894
X3.8642Y-5.3681
X3.8642Y-5.4469
X3.8642Y-5.5256
X3.8642Y-5.6043
X3.8661Y-4.5098
X3.8661Y-4.5886
X3.8661Y-4.6673
X3.8661Y-4.7461
X3.8661Y-4.8248
X3.8878Y-2.6161
X3.8878Y-2.6949
X3.8878Y-2.7736
X3.8878Y-2.8524
X3.8878Y-2.9311
X3.8996Y-9.1004
X3.8996Y-9.1791
X3.8996Y-9.2579
X3.8996Y-9.3366
X3.8996Y-9.4154
X3.9016Y-7.1929
X3.9016Y-7.2717
X3.9016Y-7.3504
X3.9016Y-7.4291
X3.9016Y-7.5079
X3.9016Y-8.2244
X3.9016Y-8.3031
X3.9016Y-8.3819
X3.9016Y-8.4606
X3.9016Y-8.5394
X3.9016Y-8.6181
X3.9016Y-8.6969
X3.9035Y-3.3622
X3.9035Y-3.4409
X3.9035Y-3.5197
X3.9035Y-3.5984
X3.9035Y-3.6772
X3.9035Y-6.3287
X3.9035Y-6.4075
X3.9035Y-6.4862
X3.9035Y-6.565
X3.9035Y-6.6437
X3.9035Y-6.7224
X3.9035Y-6.8012
X3.9429Y-5.2894
X3.9429Y-5.3681
X3.9429Y-5.4469
X3.9429Y-5.5256
X3.9429Y-5.6043
X3.9449Y-4.4311
X3.9449Y-4.5098
X3.9449Y-4.5886
X3.9449Y-4.6673
X3.9449Y-4.7461
X3.9449Y-4.8248
X3.9449Y-4.9035
X3.9665Y-2.6161
X3.9665Y-2.6949
X3.9665Y-2.7736
X3.9665Y-2.8524
X3.9665Y-2.9311
X3.9665Y-3.0098
X3.9783Y-9.1004
X3.9783Y-9.1791
X3.9783Y-9.2579
X3.9783Y-9.3366
X3.9783Y-9.4154
X3.9803Y-7.1929
X3.9803Y-7.2717
X3.9803Y-7.3504
X3.9803Y-7.4291
X3.9803Y-7.5079
X3.9803Y-8.2244
X3.9803Y-8.3031
X3.9803Y-8.3819
X3.9803Y-8.4606
X3.9803Y-8.5394
X3.9803Y-8.6181
X3.9803Y-8.6969
X3.9823Y-3.3622
X3.9823Y-3.4409
X3.9823Y-3.5197
X3.9823Y-3.5984
X3.9823Y-3.6772
X3.9823Y-6.3287
X3.9823Y-6.4075
X3.9823Y-6.4862
X3.9823Y-6.565
X3.9823Y-6.6437
X3.9823Y-6.7224
X3.9823Y-6.8012
X4.0217Y-5.2106
X4.0217Y-5.2894
X4.0217Y-5.3681
X4.0217Y-5.4469
X4.0217Y-5.5256
X4.0217Y-5.6043
X4.0236Y-4.4311
X4.0236Y-4.5098
X4.0236Y-4.5886
X4.0236Y-4.6673
X4.0236Y-4.7461
X4.0236Y-4.8248
X4.0236Y-4.9035
X4.0453Y-2.6161
X4.0453Y-2.6949
X4.0453Y-2.7736
X4.0453Y-2.8524
X4.0453Y-2.9311
X4.0453Y-3.0098
X4.0571Y-9.1004
X4.0571Y-9.1791
X4.0571Y-9.2579
X4.0571Y-9.3366
X4.0571Y-9.4154
X4.0591Y-7.1929
X4.0591Y-7.2717
X4.0591Y-7.3504
X4.0591Y-7.4291
X4.0591Y-7.5079
X4.0591Y-8.2244
X4.0591Y-8.3031
X4.0591Y-8.3819
X4.0591Y-8.4606
X4.0591Y-8.5394
X4.0591Y-8.6181
X4.0591Y-8.6969
X4.0591Y-8.7756
X4.061Y-3.3622
X4.061Y-3.4409
X4.061Y-3.5197
X4.061Y-3.5984
X4.061Y-3.6772
X4.061Y-6.3287
X4.061Y-6.4075
X4.061Y-6.4862
X4.061Y-6.565
X4.061Y-6.6437
X4.061Y-6.7224
X4.061Y-6.8012
X4.061Y-6.8799
X4.1004Y-5.2106
X4.1004Y-5.2894
X4.1004Y-5.3681
X4.1004Y-5.4469
X4.1004Y-5.5256
X4.1004Y-5.6043
X4.1024Y-4.4311
X4.1024Y-4.5098
X4.1024Y-4.5886
X4.1024Y-4.6673
X4.1024Y-4.7461
X4.1024Y-4.8248
X4.1024Y-4.9035
X4.1024Y-4.9823
X4.124Y-2.6161
X4.124Y-2.6949
X4.124Y-2.7736
X4.124Y-2.8524
X4.124Y-2.9311
X4.124Y-3.0098
X4.1378Y-8.2244
X4.1378Y-8.3031
X4.1378Y-8.3819
X4.1378Y-8.4606
X4.1378Y-8.5394
X4.1378Y-8.6181
X4.1378Y-8.6969
X4.1378Y-8.7756
X4.1398Y-3.3622
X4.1398Y-3.4409
X4.1398Y-3.5197
X4.1398Y-3.5984
X4.1398Y-3.6772
X4.1398Y-6.3287
X4.1398Y-6.4075
X4.1398Y-6.4862
X4.1398Y-6.565
X4.1398Y-6.6437
X4.1398Y-6.7224
X4.1398Y-6.8012
X4.1398Y-6.8799
X4.1811Y-4.4311
X4.1811Y-4.5098
X4.1811Y-4.5886
X4.1811Y-4.6673
X4.1811Y-4.7461
X4.1811Y-4.8248
X4.1811Y-4.9035
X4.1811Y-4.9823
X4.2028Y-2.6161
X4.2028Y-2.6949
X4.2028Y-2.7736
X4.2028Y-2.8524
X4.2028Y-2.9311
X4.2028Y-3.0098
X4.2165Y-8.2244
X4.2165Y-8.3031
X4.2165Y-8.3819
X4.2165Y-8.4606
X4.2165Y-8.5394
X4.2165Y-8.6181
X4.2165Y-8.6969
X4.2165Y-8.7756
X4.2185Y-6.3287
X4.2185Y-6.4075
X4.2185Y-6.4862
X4.2185Y-6.565
X4.2185Y-6.6437
X4.2185Y-6.7224
X4.2185Y-6.8012
X4.2185Y-6.8799
X4.2598Y-4.4311
X4.2598Y-4.5098
X4.2598Y-4.5886
X4.2598Y-4.6673
X4.2598Y-4.7461
X4.2598Y-4.8248
X4.2598Y-4.9035
X4.2598Y-4.9823
X4.2815Y-2.6161
X4.2815Y-2.6949
X4.2815Y-2.7736
X4.2815Y-2.8524
X4.2815Y-2.9311
X4.2815Y-3.0098
X4.2854Y-2.1496
X4.4646Y-2.2224
X4.6457Y-2.0512
X4.6457Y-2.0906
X4.6772Y-2.0709
X4.7067Y-2.0512
X4.7087Y-2.0906
X4.8248Y-2.2776
X4.8248Y-2.4488
X4.9075Y-2.3228
X4.9075Y-2.4055
X5.0276Y-2.4547
X5.0591Y-1.9882
X5.5512Y-1.9882
X5.5545Y-2.1384
X5.5866Y-2.4547
X5.5984Y-2.2388
X5.6142Y-1.9173
X5.6417Y-2.3386
X5.6476Y-1.1969
X5.6614Y-2.1384
X5.7047Y-1.7047
X5.7205Y-2.2382
X5.8071Y-1.9331
X5.8071Y-2.0984
X5.9075Y-1.6201
X5.9075Y-1.6949
X6.002Y-2.2461
X6.0433Y-1.2205
X6.0768Y-2.002
X6.0787Y-2.1496
X6.0886Y-2.6929
X6.1063Y-1.2165
X6.1417Y-4.4213
X6.1772Y-1.8976
X6.1772Y-1.9705
X6.1791Y-6.126
X6.1949Y-10.0039
X6.2106Y-4.5059
X6.2264Y-2.8681
X6.2283Y-4.9193
X6.2323Y-3.2697
X6.2343Y-6.5512
X6.2343Y-9.2953
X6.2362Y-4.6339
X6.2795Y-2.4154
X6.2854Y-6.0925
X6.2894Y-6.372
X6.2933Y-1.9193
X6.2933Y-2.1358
X6.2953Y-1.8169
X6.3189Y-4.5919
X6.3346Y-3.002
X6.346Y-2.9395
X6.3558Y-9.5054
X6.3681Y-4.7461
X6.3701Y-1.8189
X6.372Y-1.8819
X6.374Y-9.3366
X6.4075Y-6.3524
X6.4114Y-1.1949
X6.4134Y-3.1339
X6.4154Y-3.2067
X6.4252Y-4.8602
X6.4291Y-2.2972
X6.4291Y-4.6772
X6.4764Y-2.1358
X6.4862Y-3.0217
X6.5197Y-1.9606
X6.5315Y-6.2146
X6.5472Y-1.6772
X6.6594Y-1.3976
X6.6949Y-1.1614
X6.6969Y-2.2638
X6.7323Y-4.4232
X6.7343Y-9.5984
X6.7382Y-6.0965
X6.7461Y-1.5768
X6.7461Y-1.752
X6.7461Y-1.9567
X6.7717Y-2.7736
X6.7835Y-4.5413
X6.7854Y-2.2579
X6.7894Y-6.2146
X6.8189Y-9.4862
X6.8209Y-2.8898
X6.8366Y-1.9114
X6.8695Y-9.5669
X6.8701Y-9.9705
X6.8957Y-2.2244
X6.9488Y-2.2776
X6.9882Y-9.9213
X7.0157Y-1.435
X7.0394Y-1.2008
X7.0906Y-1.4331
X7.1161Y-1.2087
X7.1644Y-1.8612
X7.1652Y-1.8112
X7.1652Y-1.9112
X7.1713Y-1.4488
X7.185Y-1.9764
X7.1988Y-1.3287
X7.2146Y-8.2067
X7.2146Y-8.6201
X7.2146Y-8.7087
X7.2146Y-8.7933
X7.2205Y-3.1772
X7.2205Y-3.2421
X7.2205Y-3.3071
X7.2205Y-3.6634
X7.2205Y-3.7323
X7.2205Y-3.7972
X7.2205Y-4.813
X7.2205Y-4.878
X7.2205Y-4.9508
X7.2205Y-5.315
X7.2205Y-5.3819
X7.2205Y-5.4528
X7.2205Y-6.4331
X7.2205Y-6.5138
X7.2205Y-6.5925
X7.2205Y-6.9941
X7.2205Y-7.0709
X7.2205Y-7.1476
X7.2362Y-2.0925
T3
X2.3071Y-3.7441
X2.3071Y-3.8386
X2.3425Y-3.7441
X2.3425Y-3.8386
X2.378Y-3.5748
X2.378Y-3.6102
X2.378Y-3.6457
X2.378Y-3.6811
X2.378Y-3.7441
X2.378Y-3.8386
X2.4134Y-3.7441
X2.4134Y-3.8386
X2.4488Y-3.7441
X2.4488Y-3.8386
X2.6969Y-3.5925
X2.6969Y-3.628
X2.6969Y-3.6634
X2.7323Y-3.5925
X2.7323Y-3.628
X2.7677Y-3.5925
X2.7677Y-3.628
X3.5492Y-8.5177
X3.5512Y-6.622
X3.5512Y-8.6083
X3.5531Y-6.7126
X3.5866Y-8.5177
X3.5886Y-6.622
X3.5886Y-8.6083
X3.5906Y-6.7126
X3.5925Y-4.7244
X3.5945Y-4.815
X3.6161Y-2.8268
X3.6181Y-2.9173
X3.624Y-8.5177
X3.626Y-6.622
X3.626Y-8.6083
X3.628Y-6.7126
X3.6299Y-4.7244
X3.6319Y-4.815
X3.6535Y-2.8268
X3.6555Y-2.9173
X3.6614Y-8.5177
X3.6634Y-6.622
X3.6634Y-8.6083
X3.6654Y-6.7126
X3.6673Y-4.7244
X3.6693Y-4.815
X3.6909Y-2.8268
X3.6929Y-2.9173
X3.7047Y-4.7244
X3.7067Y-4.815
X3.7283Y-2.8268
X3.7303Y-2.9173
X4.1083Y-7.9941
X4.1083Y-8.0295
X4.1083Y-8.065
X4.1122Y-9.8996
X4.1122Y-9.935
X4.1122Y-9.9705
X4.1535Y-6.0886
X4.1535Y-6.124
X4.1535Y-6.1594
X4.1732Y-4.1535
X4.1732Y-4.189
X4.1732Y-4.2244
X4.2047Y-7.9941
X4.2047Y-8.0295
X4.2047Y-8.065
X4.2087Y-9.8996
X4.2087Y-9.935
X4.2087Y-9.9705
X4.252Y-6.0886
X4.252Y-6.124
X4.252Y-6.1594
X4.2717Y-4.1535
X4.2717Y-4.189
X4.2717Y-4.2244
X6.3484Y-9.5787
X6.3484Y-9.6181
X6.3484Y-9.6575
X6.3484Y-9.6969
X6.5157Y-2.3642
X6.5157Y-2.3996
X6.5157Y-2.435
X6.5157Y-2.4705
X6.5157Y-2.5295
X6.5157Y-2.565
X6.5157Y-2.6004
X6.5157Y-2.6358
X6.624Y-2.3622
X6.624Y-2.3976
X6.624Y-2.4331
X6.624Y-2.4685
X6.624Y-2.5276
X6.624Y-2.563
X6.624Y-2.5984
X6.624Y-2.6339
X6.7264Y-3.9961
X6.7264Y-4.0354
X6.7264Y-4.0748
X6.7264Y-4.1142
X6.7303Y-5.6516
X6.7303Y-5.6909
X6.7303Y-5.7303
X6.7303Y-5.7697
X6.7323Y-7.3543
X6.7323Y-7.3937
X6.7323Y-7.4331
X6.7323Y-7.4724
T4
X2.1457Y-1.8543
X2.4409Y-1.9449
T5
X4.6732Y-0.9646
X4.6732Y-1.1181
X5.4906Y-0.9138
X5.4906Y-1.3138
X5.4906Y-1.7638
X5.7303Y-0.872
X5.8303Y-0.872
X5.9303Y-0.872
X6.0303Y-0.872
X7.4055Y-1.2543
X7.4055Y-1.3543
X2.0984Y-1.626
X2.4921Y-1.626
X6.6929Y-0.8681
X6.7929Y-0.8681
X6.8929Y-0.8681
X6.9929Y-0.8681
X7.4114Y-2.1457
X7.4114Y-2.2457
X7.4114Y-2.3457
X3.5531Y-1.9965
X4.0031Y-1.9965
X4.1988Y-1.1791
X4.3524Y-1.1791
X4.4031Y-1.9965
X6.2126Y-0.8701
X6.3126Y-0.8701
X6.4126Y-0.8701
X6.5126Y-0.8701
T6
X1.9291Y-9.0394
X2.2244Y-9.0394
X6.935Y-4.2894
X7.2303Y-4.2894
X4.565Y-4.6161
X4.565Y-4.813
X4.565Y-5.0098
X4.565Y-5.2067
X4.565Y-5.4035
X4.565Y-5.6004
X4.565Y-5.7972
X4.565Y-5.9941
X5.9429Y-4.6161
X5.9429Y-4.813
X5.9429Y-5.0098
X5.9429Y-5.2067
X5.9429Y-5.4035
X5.9429Y-5.6004
X5.9429Y-5.7972
X5.9429Y-5.9941
X6.5059Y-8.2047
X6.8012Y-8.2047
X4.565Y-2.7185
X4.565Y-2.9154
X4.565Y-3.1122
X4.565Y-3.3091
X4.565Y-3.5059
X4.565Y-3.7028
X4.565Y-3.8996
X4.565Y-4.0965
X5.9429Y-2.7185
X5.9429Y-2.9154
X5.9429Y-3.1122
X5.9429Y-3.3091
X5.9429Y-3.5059
X5.9429Y-3.7028
X5.9429Y-3.8996
X5.9429Y-4.0965
X4.565Y-6.5138
X4.565Y-6.7106
X4.565Y-6.9075
X4.565Y-7.1043
X4.565Y-7.3012
X4.565Y-7.498
X4.565Y-7.6949
X4.565Y-7.8917
X5.9429Y-6.5138
X5.9429Y-6.7106
X5.9429Y-6.9075
X5.9429Y-7.1043
X5.9429Y-7.3012
X5.9429Y-7.498
X5.9429Y-7.6949
X5.9429Y-7.8917
X6.9252Y-7.6102
X7.2205Y-7.6102
X1.9331Y-5.4232
X2.2283Y-5.4232
X2.7343Y-1.7421
X3.3248Y-1.7421
X4.565Y-8.4114
X4.565Y-8.6083
X4.565Y-8.8051
X4.565Y-9.002
X4.565Y-9.1988
X4.565Y-9.3957
X4.565Y-9.5925
X4.565Y-9.7894
X5.9429Y-8.4114
X5.9429Y-8.6083
X5.9429Y-8.8051
X5.9429Y-9.002
X5.9429Y-9.1988
X5.9429Y-9.3957
X5.9429Y-9.5925
X5.9429Y-9.7894
X1.9291Y-7.8747
X2.2244Y-7.8747
X1.9311Y-6.649
X2.2264Y-6.649
X6.9488Y-5.9429
X7.2441Y-5.9429
T7
X2.0394Y-1.2638
X2.9252Y-1.2638
X7.0256Y-2.5758
X7.0256Y-2.8258
T8
X1.6969Y-1.4213
X1.6969Y-1.6213
X1.6969Y-1.8213
T9
X2.7244Y-0.878
X2.9244Y-0.878
X3.1244Y-0.878
X3.3244Y-0.878
T10
X1.9538Y-3.274
X2.6132Y-2.3323
T11
X7.2874Y-9.8465
X1.7677Y-9.8465
X7.2854Y-0.9803
X1.7677Y-0.9803
T0
M30
